<?xml version="1.0" encoding="utf-8"?>
<!-- Generator: Adobe Illustrator 26.0.1, SVG Export Plug-In . SVG Version: 6.00 Build 0)  -->
<svg version="1.1" id="Layer_1" xmlns="http://www.w3.org/2000/svg" xmlns:xlink="http://www.w3.org/1999/xlink" x="0px" y="0px"
	 viewBox="0 0 960 512" style="enable-background:new 0 0 960 512;" xml:space="preserve">
<style type="text/css">
	.st0{fill:url(#SVGID_1_);}
	.st1{fill:url(#SVGID_00000067950979864755647740000000805241251859329947_);}
	.st2{fill:#4FC86E;}
	.st3{fill:url(#SVGID_00000091721516781325666030000014665944804932890552_);}
	.st4{opacity:0.5;}
	.st5{fill:#524DF3;}
</style>
<g>
	<g>
		<linearGradient id="SVGID_1_" gradientUnits="userSpaceOnUse" x1="483.5131" y1="355.4296" x2="483.5131" y2="62.6953">
			<stop  offset="0" style="stop-color:#524DF3;stop-opacity:0"/>
			<stop  offset="1" style="stop-color:#524DF3;stop-opacity:0.5"/>
		</linearGradient>
		<path class="st0" d="M291.4,310.4c0-0.2,0-0.3,0.1-0.5c21.5-48.6,60.7-113.6,116.8-113.6c30.4,0,60.4,16.7,86.8,48.4
			c9.4,11.3,16.8,22.5,21.9,31.1c0.5,0.9,1.7,0.9,2.3,0.1c10.2-14.4,28.4-33.4,53.1-33.4c25.4,0,48.3,20.7,67.9,61.4
			c9.7,20.1,16.1,40,19.2,50.5c0.2,0.6,0.7,1,1.3,1H677c0.8,0,1.4-0.6,1.4-1.4V110.5c0-26.4-21.4-47.8-47.8-47.8H324.6
			c-19.8,0-35.9,16.1-35.9,35.9v211.7C288.7,312.1,291.3,312.2,291.4,310.4L291.4,310.4z"/>
	</g>
	
		<linearGradient id="SVGID_00000178193284259114994900000014087263660807608762_" gradientUnits="userSpaceOnUse" x1="466.4886" y1="438.3228" x2="466.4886" y2="242.1081">
		<stop  offset="0" style="stop-color:#4FC86E;stop-opacity:0"/>
		<stop  offset="1" style="stop-color:#4FC86E;stop-opacity:0.5"/>
	</linearGradient>
	<path style="fill:url(#SVGID_00000178193284259114994900000014087263660807608762_);" d="M265.1,401.2v37.1h398.8l4-37.1l0,0
		c0,0-28.3-112.9-80.7-112.9c-33.8,0-54.7,44.3-54.7,44.3s-41.7-90.5-109.4-90.5c-82,0-127.6,159.1-127.6,159.1H265.1"/>
	<g>
		<path class="st2" d="M682.1,368.5h-36.8l-1.7-6.6c-0.1-0.3-7.1-27.9-20.2-55c-11.3-23.4-29.5-51.3-52-51.3
			c-27.8,0-46.6,38.9-46.8,39.3l-8,16.9l-7.8-17c-0.4-0.8-40.2-85.4-101.4-85.4c-38,0-68.1,40.6-86.7,74.7
			c-21,38.5-32.3,77.6-32.4,78l-1.8,6.3l-82.1,0V351h69c9.8-30.7,55.3-159.1,134.1-159.1c30.4,0,60.4,16.7,86.8,48.4
			c10.1,12.1,17.8,24.1,23,33c10-14.6,28.6-35.1,54.3-35.1c25.4,0,48.3,20.7,67.9,61.4c10,20.8,16.5,41.3,19.5,51.5h23.3V368.5z"/>
	</g>
	<rect x="161.8" y="351" class="st2" width="23" height="17.5"/>
	
		<linearGradient id="SVGID_00000041285314534708642770000012133626777443156633_" gradientUnits="userSpaceOnUse" x1="40.4733" y1="359.7585" x2="142.189" y2="359.7585">
		<stop  offset="0" style="stop-color:#4FC86E;stop-opacity:0"/>
		<stop  offset="1" style="stop-color:#4FC86E;stop-opacity:0.5"/>
	</linearGradient>
	
		<rect x="40.5" y="351" style="fill:url(#SVGID_00000041285314534708642770000012133626777443156633_);" width="101.7" height="17.5"/>
	<g class="st4">
		<path class="st5" d="M676.8,58.1c4.9,9.1,7.7,19.6,7.7,30.6v4.1c3.8,6.5,5.9,14.1,5.9,22.1v305.4c0,24.4-19.9,44.3-44.3,44.3
			H340.7c-8.1,0-15.6-2.2-22.1-5.9h-4.1c-11.1,0-21.5-2.8-30.6-7.7c10.9,20.2,32.3,34,56.9,34h305.4c35.7,0,64.7-29,64.7-64.7V115
			C710.8,90.4,697,69,676.8,58.1z"/>
	</g>
	<g>
		<path class="st5" d="M619.8,458.8H314.4c-35.7,0-64.7-29-64.7-64.7V88.7c0-35.7,29-64.7,64.7-64.7h305.4c35.7,0,64.7,29,64.7,64.7
			v305.4C684.5,429.8,655.5,458.8,619.8,458.8z M314.4,44.4c-24.4,0-44.3,19.9-44.3,44.3v305.4c0,24.4,19.9,44.3,44.3,44.3h305.4
			c24.4,0,44.3-19.9,44.3-44.3V88.7c0-24.4-19.9-44.3-44.3-44.3H314.4z"/>
	</g>
	<circle class="st5" cx="605" cy="102.3" r="21.7"/>
</g>
</svg>
